<svg version="1.1" id="Layer_1" xmlns="http://www.w3.org/2000/svg" xmlns:xlink="http://www.w3.org/1999/xlink" x="0px" y="0px"
	 width="100%" viewBox="0 0 85 98" enable-background="new 0 0 85 98" xml:space="preserve">
<path fill="#FDFDFD" opacity="1.000000" stroke="none" 
	d="
M52.000000,1.000000 
	C62.354229,1.000000 72.708458,1.000000 83.456573,1.464791 
	C83.894913,9.271646 83.939354,16.613710 83.542068,24.041142 
	C80.643677,24.126507 78.186996,24.126507 75.474129,24.126507 
	C75.474129,41.346298 75.474129,58.072704 75.474129,74.637863 
	C79.204346,75.120583 82.602173,75.560295 86.000000,76.000000 
	C86.000000,83.607323 86.000000,91.214653 86.000000,99.000000 
	C74.979622,99.000000 63.958469,99.000000 52.862228,98.662712 
	C52.597546,91.726227 52.275055,85.127708 52.241806,78.527725 
	C52.111626,52.685398 52.072781,26.842613 52.000000,1.000000 
z"/>
<path fill="#FFFFFF" opacity="1.000000" stroke="none" 
	d="
M50.000000,99.000000 
	C42.645748,99.000000 35.291496,99.000000 27.555843,98.538147 
	C27.141829,85.956055 27.154547,73.835472 27.060892,61.715706 
	C26.996920,53.437057 26.784500,45.159557 26.711632,36.425949 
	C26.856541,24.313574 26.928270,12.656787 27.000000,1.000000 
	C34.354252,1.000000 41.708500,1.000000 49.324402,1.429907 
	C49.652374,12.155522 49.740360,22.451147 49.780563,32.746960 
	C49.866787,54.831257 49.928341,76.915649 50.000000,99.000000 
z"/>
<path fill="#F8F8F8" opacity="1.000000" stroke="none" 
	d="
M24.000000,99.000000 
	C16.373011,99.000000 8.746022,99.000000 1.000000,99.000000 
	C1.000000,78.645912 1.000000,58.291615 1.430330,37.678974 
	C9.207806,37.301987 16.554951,37.183346 24.054005,37.508720 
	C24.272278,46.100182 24.423847,54.248020 24.385031,62.394958 
	C24.326895,74.596977 24.135004,86.798347 24.000000,99.000000 
z"/>
<path fill="#010101" opacity="1.000000" stroke="none" 
	d="
M23.902098,37.064697 
	C16.554951,37.183346 9.207806,37.301987 1.430330,37.210316 
	C1.000000,25.085335 1.000000,13.170669 1.000000,1.000000 
	C9.352484,1.000000 17.707577,1.000000 26.531334,1.000000 
	C26.928270,12.656787 26.856541,24.313574 26.366539,36.423866 
	C25.266209,36.939819 24.584154,37.002258 23.902098,37.064697 
z"/>
<path fill="#090909" opacity="1.000000" stroke="none" 
	d="
M86.000000,75.531342 
	C82.602173,75.560295 79.204346,75.120583 75.474129,74.637863 
	C75.474129,58.072704 75.474129,41.346298 75.474129,24.126507 
	C78.186996,24.126507 80.643677,24.126507 83.873230,24.116650 
	C85.097404,24.071198 85.548698,24.035599 86.000000,24.000000 
	C86.000000,41.020893 86.000000,58.041790 86.000000,75.531342 
z"/>
<path fill="#3E3E3E" opacity="1.000000" stroke="none" 
	d="
M50.333332,99.000000 
	C49.928341,76.915649 49.866787,54.831257 49.780563,32.746960 
	C49.740360,22.451147 49.652374,12.155522 49.793022,1.429907 
	C50.444447,1.000000 50.888889,1.000000 51.666668,1.000000 
	C52.072781,26.842613 52.111626,52.685398 52.241806,78.527725 
	C52.275055,85.127708 52.597546,91.726227 52.393570,98.662712 
	C51.555553,99.000000 51.111111,99.000000 50.333332,99.000000 
z"/>
<path fill="#434343" opacity="1.000000" stroke="none" 
	d="
M24.054005,37.508720 
	C24.584154,37.002258 25.266209,36.939819 26.293358,36.879459 
	C26.784500,45.159557 26.996920,53.437057 27.060892,61.715706 
	C27.154547,73.835472 27.141829,85.956055 27.087221,98.538147 
	C26.250000,99.000000 25.500000,99.000000 24.375000,99.000000 
	C24.135004,86.798347 24.326895,74.596977 24.385031,62.394958 
	C24.423847,54.248020 24.272278,46.100182 24.054005,37.508720 
z"/>
<path fill="#C2C2C2" opacity="1.000000" stroke="none" 
	d="
M86.000000,23.531263 
	C85.548698,24.035599 85.097404,24.071198 84.314949,24.031284 
	C83.939354,16.613710 83.894913,9.271646 83.925232,1.464791 
	C84.666664,1.642859 85.898735,2.273695 85.912704,2.930432 
	C86.055351,9.638716 86.000000,16.351210 86.000000,23.531263 
z"/>
</svg>